HIERARCHY
ROOT Hips
{
  OFFSET -187.679 86.5976 -156.378
  CHANNELS 6 Xposition Yposition Zposition Zrotation Xrotation Yrotation
  JOINT LeftUpLeg
  {
    OFFSET 8.64259 1.95398 -2.38835
    CHANNELS 3 Zrotation Xrotation Yrotation
    JOINT LeftLeg
    {
      OFFSET 43.7702 0 0
      CHANNELS 3 Zrotation Xrotation Yrotation
      JOINT LeftFoot
      {
        OFFSET 40.6238 0 0
        CHANNELS 3 Zrotation Xrotation Yrotation
        JOINT LeftToeBase
        {
          OFFSET 12.7242 0 0
          CHANNELS 3 Zrotation Xrotation Yrotation
          End Site
          {
            OFFSET 0 0 0
          }
        }
      }
    }
  }
  JOINT RightUpLeg
  {
    OFFSET -8.2249 1.95398 -2.59336
    CHANNELS 3 Zrotation Xrotation Yrotation
    JOINT RightLeg
    {
      OFFSET 43.5653 0 0
      CHANNELS 3 Zrotation Xrotation Yrotation
      JOINT RightFoot
      {
        OFFSET 40.6238 0 0
        CHANNELS 3 Zrotation Xrotation Yrotation
        JOINT RightToeBase
        {
          OFFSET 12.7242 0 0
          CHANNELS 3 Zrotation Xrotation Yrotation
          End Site
          {
            OFFSET 0 0 0
          }
        }
      }
    }
  }
  JOINT Spine
  {
    OFFSET 0.165834 0.87714 6.61349
    CHANNELS 3 Zrotation Xrotation Yrotation
    JOINT Spine1
    {
      OFFSET 7.38963 1.71661e-005 0
      CHANNELS 3 Zrotation Xrotation Yrotation
      JOINT Spine2
      {
        OFFSET 11.9445 1.14441e-005 0
        CHANNELS 3 Zrotation Xrotation Yrotation
        JOINT Spine3
        {
          OFFSET 14.7254 4.19617e-005 0
          CHANNELS 3 Zrotation Xrotation Yrotation
          JOINT Spine4
          {
            OFFSET 10.9679 0 0
            CHANNELS 3 Zrotation Xrotation Yrotation
            JOINT RightShoulder
            {
              OFFSET 2.46616 -1.6653 3.69651
              CHANNELS 3 Zrotation Xrotation Yrotation
              JOINT RightArm
              {
                OFFSET 13.0012 0 0
                CHANNELS 3 Zrotation Xrotation Yrotation
                JOINT RightForeArm
                {
                  OFFSET 28.7848 1.52588e-005 0
                  CHANNELS 3 Zrotation Xrotation Yrotation
                  JOINT RightHand
                  {
                    OFFSET 26.5688 1.52588e-005 0
                    CHANNELS 3 Zrotation Xrotation Yrotation
                    End Site
                    {
                      OFFSET 0 0 0
                    }
                  }
                }
              }
            }
            JOINT LeftShoulder
            {
              OFFSET 2.38034 -1.29275 -3.7523
              CHANNELS 3 Zrotation Xrotation Yrotation
              JOINT LeftArm
              {
                OFFSET 16.3182 6.10352e-005 0
                CHANNELS 3 Zrotation Xrotation Yrotation
                JOINT LeftForeArm
                {
                  OFFSET 27.0901 0 0
                  CHANNELS 3 Zrotation Xrotation Yrotation
                  JOINT LeftHand
                  {
                    OFFSET 24.5451 1.52588e-005 0
                    CHANNELS 3 Zrotation Xrotation Yrotation
                    End Site
                    {
                      OFFSET 0 0 0
                    }
                  }
                }
              }
            }
            JOINT Neck
            {
              OFFSET 5.0226 -0.0266342 0
              CHANNELS 3 Zrotation Xrotation Yrotation
              JOINT Head
              {
                OFFSET 6.69363 2.86102e-005 0
                CHANNELS 3 Zrotation Xrotation Yrotation
                End Site
                {
                  OFFSET 0 0 0
                }
              }
            }
          }
        }
      }
    }
  }
}
MOTION
Frames:	14
Frame Time:	0.0416667
-321.186 89.8586 299.058 97.6621 32.2873 90.2152 -172.629 -28.2016 87.3041 -11.8126 8.35891 8.16036 82.6081 9.57271 -0.400951 19.0223 -2.82747 -2.41594 -177.272 24.5654 103.294 -20.284 0.157089 0.886272 69.0973 -2.97877 -1.07315 26.3933 -1.57292 3.8864 0.473763 8.30646 -90.5539 10.2633 0.690842 -1.15937 -1.40801 0.639109 -1.18865 -23.9419 1.0073 -0.898173 -3.92926 1.00731 -0.898176 85.0204 -52.4092 -107.421 25.3004 -15.2893 4.47534 -17.3175 -15.7009 -16.1312 -7.83988 -0.0651717 -4.29505 -90.092 -43.6354 77.34 -14.283 3.67982 -34.18 16.3415 2.05979 -31.3266 0.424433 -0.0418647 -2.34868 8.29946 0.758525 -12.5176 7.70699 3.56259 2.02154 
-315.573 90.2693 293.275 99.2014 45.4119 88.3578 -165.341 -25.6187 98.7303 -22.2129 28.7756 8.27077 77.11 9.44193 2.19255 24.9873 -0.521541 -2.73748 178.808 26.3406 99.5532 -29.3141 5.74748 3.04778 62.4863 -0.106996 -3.24711 23.365 -1.87823 3.06293 -0.958845 8.24014 -90.8181 10.3792 -2.28471 -1.42281 -1.29024 -2.34508 -1.32086 -23.831 -1.75152 -2.04369 -3.81837 -1.75151 -2.04369 85.9343 -51.6207 -106.311 27.0108 -13.7626 5.84908 -14.6434 -16.1227 -8.24031 -7.49884 -0.122476 -3.42487 -90.6008 -44.9494 76.8589 -15.9631 7.22618 -32.7695 16.6758 3.1961 -29.673 -0.0207332 -0.0597495 -2.85375 8.92243 1.05519 -9.33643 6.88879 3.12528 0.8815 
-308.961 90.3578 286.993 100.12 47.5729 88.259 -165.618 -20.9914 100.858 -36.7858 34.081 10.5861 64.6275 3.23723 1.9218 25.3333 0.975868 -6.05772 177.003 25.5812 99.8762 -39.0464 8.0824 4.1928 62.1983 -0.219701 -0.55138 20.5644 -1.92787 1.74255 -1.06655 8.05977 -90.9885 10.7328 -2.57955 -1.72886 -0.936578 -2.65313 -1.61362 -23.4753 -1.94086 -2.42412 -3.46268 -1.94084 -2.42412 85.8464 -51.2094 -106.563 28.6887 -12.6107 7.21697 -14.0714 -13.4168 -5.65584 -6.15925 0.0577321 -6.5913 -90.7477 -45.053 76.6507 -17.6458 16.7842 -28.2339 15.403 4.2938 -24.5963 -3.25939 -0.0870469 -3.83838 7.8016 0.897581 -7.64723 5.96121 2.56119 1.42572 
-303.164 90.834 281.474 103.082 47.8986 86.8832 -167.324 -11.1688 101.71 -57.0884 37.0192 12.3658 55.1741 -1.76216 -0.397117 18.7285 -1.5808 -5.54766 176.352 20.2592 101.123 -43.6501 7.18601 4.66886 67.9637 -2.17716 -2.01993 21.8961 -1.61011 1.51856 -0.819154 8.26063 -90.9622 10.3343 -2.07222 -1.73162 -1.33605 -2.14639 -1.63875 -23.8694 -1.45613 -2.27422 -3.85678 -1.45613 -2.27422 84.9127 -52.2321 -107.633 28.5454 -13.9484 4.99073 -14.852 -13.6011 -8.95619 -5.81559 0.00315556 -5.54369 -90.2877 -43.8365 77.0776 -20.0133 23.4234 -25.7248 12.2313 5.02954 -14.9053 -1.73143 -0.0573457 -1.73974 8.48103 -0.127097 -8.67279 5.63647 1.90016 2.50642 
-298.497 92.1222 276.86 102.587 50.1281 86.5825 -172.162 4.47755 99.7954 -70.9666 29.3237 11.3648 61.4026 1.24588 0.173572 11.4502 -4.95096 -4.06409 176.251 14.9076 100.373 -41.5066 9.06141 5.17859 71.2201 -3.24324 -1.34186 23.972 -1.3672 1.86739 -0.675147 8.26175 -90.9052 10.3352 -1.75921 -1.64552 -1.33553 -1.8299 -1.56651 -23.8673 -1.18346 -2.09804 -3.85469 -1.18344 -2.09804 84.9145 -51.8376 -107.752 26.0475 -16.1877 -0.339035 -17.011 -16.3199 -15.5327 -7.19588 -0.0264868 -4.90828 -90.8099 -45.4739 76.6628 -23.1003 22.2212 -20.0913 10.0252 1.48321 -8.31241 -0.706006 -0.0702316 -3.05099 7.60072 -1.45346 -8.4099 6.59977 0.534657 2.8122 
-293.976 93.8059 272.423 101.494 47.884 84.8322 -174.205 15.9914 94.7337 -69.7657 20.9213 7.87257 67.536 4.57079 2.20108 11.2319 -6.184 -1.81238 177.148 8.54685 98.51 -36.6775 7.38943 3.34169 72.9363 -3.65617 -0.938035 24.9476 -1.15971 1.75328 -0.0913181 8.24612 -90.4828 10.3778 -0.402937 -0.922838 -1.29339 -0.443164 -0.90422 -23.8259 -0.106968 -1.00127 -3.81321 -0.106966 -1.00126 84.4977 -51.8721 -108.353 21.6355 -18.4169 -6.56528 -18.9743 -15.6508 -21.2073 -7.06793 -0.0562397 -4.63824 -90.2159 -45.6986 77.6475 -27.0512 18.6158 -10.647 10.1458 -2.16448 -10.2583 -4.52519 -0.0654981 -5.57566 5.35721 -2.64211 -9.41604 7.93483 -0.572821 2.78467 
-289.171 94.9287 267.397 100.503 46.0471 84.2133 -175.87 23.4789 92.3575 -57.2261 13.751 5.61027 69.1628 5.09781 0.837335 12.7709 -6.29428 -0.381588 177.261 1.03187 96.5053 -30.8052 7.99564 2.31203 74.9968 -3.91291 2.88717 24.299 -1.37995 2.08108 0.429452 8.2578 -90.2267 10.3606 0.751743 -0.517566 -1.31021 0.728243 -0.55016 -23.847 0.872544 -0.267694 -3.83432 0.872534 -0.267705 85.2523 -50.3549 -107.711 17.3351 -17.8626 -13.6531 -21.0418 -16.0229 -25.3789 -11.4589 -0.316826 -1.77616 -89.7769 -46.0962 78.4246 -27.2552 14.6239 -1.97077 10.0492 -6.03382 -13.1374 -4.19518 -0.0956142 -3.72416 4.02559 -3.481 -8.36882 8.31632 -1.88452 0.655296 
-284.282 94.6953 261.773 99.812 44.3792 83.7552 -177.865 26.0399 90.8161 -37.1888 10.3055 4.30883 66.58 3.74193 -1.98012 17.5375 -5.79175 2.99694 175.979 -5.64683 94.6522 -26.7086 4.4659 1.84352 77.739 -4.6445 2.90199 24.8076 -0.966696 1.08339 0.841503 8.27994 -90.0611 10.3165 1.64865 -0.263581 -1.3534 1.63541 -0.335912 -23.8968 1.65161 0.244225 -3.88419 1.65159 0.244217 84.5565 -49.5761 -109.01 10.7076 -17.9513 -19.9324 -22.0636 -15.8761 -28.1187 -12.8549 -0.500339 -0.355435 -89.7048 -47.5177 78.8583 -24.81 10.4863 6.13222 10.5196 -5.8629 -16.9126 -3.59146 -0.104141 -2.45859 3.92061 -3.85086 -6.51862 9.01457 -2.71958 -0.794293 
-278.737 93.5267 255.684 99.8358 42.7839 83.6654 -179.189 25.1442 91.0535 -17.2013 13.3771 3.87184 63.5769 2.98569 -2.08109 17.2176 -5.54797 2.0914 174.791 -13.2515 92.7352 -22.9911 1.83422 1.44999 79.9486 -5.54137 2.84098 26.2402 -0.741134 1.12702 1.19519 8.35384 -90.0012 10.17 2.381 -0.203748 -1.49883 2.3697 -0.30841 -24.051 2.3321 0.52167 -4.03835 2.33209 0.521654 84.1334 -48.7917 -109.914 2.99046 -20.0704 -27.5592 -21.1656 -14.7987 -27.2819 -6.91132 -0.0429446 -4.60889 -89.2861 -47.3532 79.4656 -23.1288 5.97193 11.0331 10.7605 -6.74894 -15.3935 -3.08468 -0.102851 -1.59837 4.37512 -4.48192 -5.6922 9.52231 -3.46894 -0.897722 
-272.404 91.4408 248.861 99.6587 40.023 83.7543 -178.995 23.3663 90.5775 -10.2242 9.79988 4.01948 63.3917 2.67902 -3.55578 17.7367 -7.2469 6.27718 172.248 -20.0333 89.3625 -21.6499 -2.6589 1.09137 81.923 -6.71478 2.03505 28.4663 -0.724124 2.33717 1.63742 8.36186 -89.9403 10.1565 3.29003 -0.158161 -1.51031 3.27987 -0.30297 -24.0774 3.18529 0.838962 -4.06478 3.18531 0.838963 84.9664 -48.0032 -108.907 -0.12487 -18.1044 -32.2184 -25.4053 -22.7894 -30.3813 -2.29771 -0.0333602 -5.02259 -88.5251 -46.8332 80.5298 -22.6013 5.27518 12.9124 10.6859 -7.83264 -10.3654 -3.59967 -0.121134 -0.977269 6.71393 -5.02676 -5.43487 7.62846 -3.89963 -0.771825 
-265.461 91.2313 241.193 98.8577 37.306 82.4869 -178.358 26.0311 88.5045 -22.6728 10.6691 3.43493 59.4316 -0.0415099 -3.386 18.4789 -6.54482 5.51033 168.204 -23.1647 83.1829 -22.9395 -7.8684 -0.229521 74.7424 -5.39915 -0.421544 36.4592 -0.195081 6.58294 1.89471 8.38317 -89.6199 10.1047 3.94877 0.422952 -1.56019 3.96355 0.24847 -24.1376 3.63885 1.59169 -4.12491 3.63884 1.59168 85.6506 -47.3662 -108.061 2.52042 -15.1213 -34.1336 -24.9938 -20.6894 -30.1314 -6.82466 -0.0890431 -3.58928 -88.6075 -45.4555 80.1168 -24.4431 5.79055 12.2265 10.8563 -8.10951 -5.28467 -3.90719 -0.134866 -0.549636 9.65909 -5.50482 -6.97713 5.92485 -3.86108 -0.697971 
-258.573 91.7572 233.597 98.6472 36.4227 81.0413 -176.294 25.7678 86.2211 -32.8415 14.5227 1.91968 63.3085 1.65047 -0.73007 10.9935 -8.77213 2.92977 168.191 -18.4294 81.2299 -37.2768 -8.41018 -3.10369 63.0548 -1.72361 -1.79011 36.226 -1.27124 10.6739 1.58834 8.11493 -89.3763 10.6318 3.45035 0.926234 -1.03486 3.48777 0.773306 -23.5968 3.01239 1.92112 -3.58418 3.01238 1.92113 84.4093 -47.9176 -109.79 6.32962 -18.7957 -31.9727 -24.7193 -20.1022 -30.3144 -5.24364 -0.01878 -5.13618 -88.5956 -46.0521 80.2606 -26.5552 7.12144 13.6333 10.2266 -10.26 -5.45695 -4.5365 -0.153059 -0.687343 8.31706 -4.14633 -6.74532 4.67902 -2.75273 -2.00474 
-252.936 92.7163 226.959 99.9363 35.5426 78.0524 -175.237 21.3389 82.9501 -38.2332 14.2356 1.19015 68.3651 4.37995 2.00221 11.4702 -7.50258 0.912368 169.541 -7.23454 79.285 -57.9901 -7.88203 -5.3422 53.641 1.12308 -1.03671 21.4579 -3.02656 5.23224 1.25436 8.13703 -89.0862 10.5793 2.91822 1.55382 -1.08916 2.98376 1.42381 -23.6349 2.31641 2.35914 -3.6223 2.31641 2.35914 83.5261 -50.1441 -110.366 8.04289 -23.7443 -29.7231 -26.2509 -21.8029 -32.792 -1.67617 -0.00225355 -7.54049 -88.6514 -45.1448 79.9807 -28.2275 10.6606 8.53135 9.94129 -7.75061 -5.81704 -5.99201 -0.14821 -2.24275 6.59805 -3.32315 -9.59364 4.5219 -1.30967 0.904814 
-247.82 94.0091 221.621 100.109 35.1353 77.2462 -175.596 15.5238 80.9757 -37.6729 12.4748 2.01945 72.146 5.77179 1.76141 12.5558 -7.21369 1.2937 173.12 3.31519 81.8846 -67.9597 -2.05848 -5.56429 61.3707 -1.79381 -0.102574 24.0031 -2.49471 5.24167 0.809521 8.17239 -89.0884 10.5122 2.03101 1.63039 -1.158 2.10079 1.53941 -23.6925 1.4472 2.1653 -3.67982 1.44723 2.16531 84.9478 -48.4142 -108.799 13.5478 -26.2663 -28.4613 -22.0107 -19.7677 -27.638 -6.81744 -0.015218 -5.01115 -88.6945 -46.1447 80.1255 -24.662 13.7318 0.180447 10.9271 -2.07761 -11.1369 -5.13033 -0.13049 -2.46045 4.3882 -1.30142 -6.43864 4.57039 -0.178525 -0.725737 
